<?xml version="1.0" encoding="utf-8"?>
<svg xmlns="http://www.w3.org/2000/svg" viewBox="0 0 64 64" width="512" height="512">
  <path d="M45.841797 1.8007812C45.709922 1.8057813 45.577078 1.8380312 45.455078 1.8945312C45.211078 2.0085312 45.025547 2.21575 44.935547 2.46875L43.517578 6.4941406C40.001818 4.8984402 36.106248 4 32 4C16.561 4 4 16.561 4 32C4 47.439 16.561 60 32 60C47.439 60 60 47.439 60 32C60 27.825068 59.066252 23.87037 57.419922 20.308594L61.90625 18.378906C62.15225 18.272906 62.345359 18.070312 62.443359 17.820312C62.540359 17.570312 62.531875 17.293828 62.421875 17.048828C59.228875 9.9908281 53.478469 4.5972344 46.230469 1.8652344C46.104969 1.8177344 45.973672 1.7957812 45.841797 1.8007812 z M 46.476562 4.1152344C52.462562 6.6292344 57.269109 11.136172 60.162109 16.951172L38.701172 26.179688L46.476562 4.1152344 z M 31 6.0253906L31 31L6.0253906 31C6.0272188 30.951969 6.0272072 30.903434 6.0292969 30.855469C6.0389633 30.633702 6.0550969 30.413668 6.0703125 30.193359C6.0854012 29.974825 6.09866 29.756095 6.1191406 29.539062C6.1382974 29.336126 6.1636849 29.135161 6.1875 28.933594C6.2136871 28.711842 6.2397299 28.489556 6.2714844 28.269531C6.2997437 28.07386 6.3326257 27.879797 6.3652344 27.685547C6.4034315 27.457875 6.4422338 27.231503 6.4863281 27.005859C6.5253278 26.806357 6.5677788 26.608012 6.6113281 26.410156C6.6571795 26.201785 6.7050275 25.99359 6.7558594 25.787109C6.8028714 25.596205 6.8530818 25.40603 6.9042969 25.216797C6.962896 25.000235 7.0219084 24.784611 7.0859375 24.570312C7.1466176 24.367252 7.2099037 24.165803 7.2753906 23.964844C7.3357457 23.779604 7.3985066 23.595509 7.4628906 23.412109C7.5322496 23.21457 7.6037643 23.017607 7.6777344 22.822266C7.7553545 22.617258 7.8372976 22.41345 7.9199219 22.210938C7.9917283 22.034985 8.0631413 21.859562 8.1386719 21.685547C8.229656 21.475861 8.3255636 21.269292 8.421875 21.0625C8.499482 20.895915 8.57719 20.729109 8.6582031 20.564453C8.7518818 20.374015 8.8490967 20.185839 8.9472656 19.998047C9.0442074 19.812628 9.1409366 19.62613 9.2421875 19.443359C9.3381601 19.270111 9.4392775 19.100496 9.5390625 18.929688C9.6422317 18.753087 9.7443811 18.576274 9.8515625 18.402344C9.9657603 18.217022 10.084447 18.033777 10.203125 17.851562C10.306928 17.69221 10.408451 17.531921 10.515625 17.375C10.632914 17.203229 10.75569 17.035981 10.876953 16.867188C10.995775 16.701825 11.113757 16.535487 11.236328 16.373047C11.351966 16.219774 11.472876 16.070537 11.591797 15.919922C11.726503 15.749342 11.859203 15.577255 11.998047 15.410156C12.088151 15.301698 12.181617 15.196808 12.273438 15.089844C13.139393 14.081165 14.081165 13.139393 15.089844 12.273438C15.196806 12.181614 15.3017 12.088154 15.410156 11.998047C15.577255 11.859203 15.749342 11.726503 15.919922 11.591797C16.070535 11.472872 16.219776 11.35197 16.373047 11.236328C16.535487 11.113757 16.701825 10.995775 16.867188 10.876953C17.035979 10.755685 17.20323 10.632919 17.375 10.515625C17.54326 10.400706 17.715665 10.292681 17.886719 10.181641C18.051035 10.074989 18.214023 9.9662966 18.380859 9.8632812C18.575294 9.7432128 18.77293 9.6287186 18.970703 9.5136719C19.126353 9.4231331 19.281785 9.3315194 19.439453 9.2441406C19.623475 9.1421562 19.81134 9.0448811 19.998047 8.9472656C20.18584 8.8490915 20.374014 8.751887 20.564453 8.6582031C20.729109 8.57719 20.895915 8.499482 21.0625 8.421875C21.269295 8.3255582 21.475858 8.2296613 21.685547 8.1386719C21.862777 8.0617455 22.041463 7.9890784 22.220703 7.9160156C22.413817 7.8373182 22.607351 7.7596962 22.802734 7.6855469C23.003763 7.6092364 23.206797 7.5362683 23.410156 7.4648438C23.61083 7.3943839 23.81275 7.3253988 24.015625 7.2597656C24.181707 7.2060226 24.348111 7.1539815 24.515625 7.1035156C24.753841 7.0317639 24.993353 6.9634701 25.234375 6.8984375C25.418939 6.848628 25.604864 6.801672 25.791016 6.7558594C25.991384 6.7065653 26.192382 6.6598396 26.394531 6.6152344C26.600809 6.5696963 26.807556 6.5249659 27.015625 6.484375C27.235846 6.4414408 27.457535 6.4025529 27.679688 6.3652344C27.875824 6.332264 28.071946 6.3000202 28.269531 6.2714844C28.489566 6.2397275 28.71183 6.2136891 28.933594 6.1875C29.135161 6.1636849 29.336126 6.1382974 29.539062 6.1191406C29.756107 6.0986584 29.974812 6.0854025 30.193359 6.0703125C30.413668 6.0550969 30.633702 6.0389633 30.855469 6.0292969C30.903437 6.027207 30.951966 6.027219 31 6.0253906 z M 33 6.03125C36.505205 6.1656636 39.831042 6.9965447 42.849609 8.390625L36.056641 27.667969C35.924641 28.042969 36.026406 28.459469 36.316406 28.730469C36.505406 28.907469 36.751 29 37 29C37.134 29 37.268531 28.972969 37.394531 28.917969L55.580078 21.099609C57.123384 24.41762 58 28.105948 58 32C58 38.809706 55.366086 45.014103 51.066406 49.654297L33 31.587891L33 6.03125 z M 6.0253906 33L31.583984 33L49.652344 51.068359C45.012475 55.367058 38.809191 58 32 58C17.998373 58 6.5534679 46.873762 6.0253906 33 z M 12.134766 37.589844C12.005313 37.579125 11.871234 37.593719 11.740234 37.636719L9.8417969 38.261719C9.3167969 38.434719 9.030125 39.000391 9.203125 39.525391C9.342125 39.945391 9.7342969 40.212891 10.154297 40.212891C10.257297 40.212891 10.362797 40.195109 10.466797 40.162109L12.365234 39.537109C12.890234 39.364109 13.176906 38.798437 13.003906 38.273438C12.874156 37.880437 12.523125 37.622 12.134766 37.589844 z M 13.925781 41.912109C13.797328 41.931328 13.670734 41.978031 13.552734 42.050781L11.845703 43.091797C11.374703 43.378797 11.224719 43.992844 11.511719 44.464844C11.699719 44.772844 12.030188 44.943359 12.367188 44.943359C12.544188 44.943359 12.723719 44.897828 12.886719 44.798828L14.595703 43.757812C15.066703 43.470813 15.214734 42.854813 14.927734 42.382812C14.710984 42.029562 14.311141 41.854453 13.925781 41.912109 z M 17.001953 45.673828C16.746078 45.670953 16.489969 45.765484 16.292969 45.958984L14.863281 47.357422C14.468281 47.743422 14.461656 48.376484 14.847656 48.771484C15.043656 48.971484 15.3025 49.072266 15.5625 49.072266C15.8145 49.072266 16.067719 48.978109 16.261719 48.787109L17.691406 47.388672C18.086406 47.002672 18.093031 46.369609 17.707031 45.974609C17.513531 45.776609 17.257828 45.676703 17.001953 45.673828 z M 20.863281 48.693359C20.479047 48.627078 20.075062 48.790375 19.851562 49.140625L18.771484 50.824219C18.473484 51.289219 18.609219 51.907078 19.074219 52.205078C19.241219 52.312078 19.428281 52.363281 19.613281 52.363281C19.943281 52.363281 20.267031 52.201344 20.457031 51.902344L21.535156 50.21875C21.833156 49.75375 21.697422 49.135891 21.232422 48.837891C21.116172 48.763141 20.991359 48.715453 20.863281 48.693359 z M 24.916016 50.777344C24.527375 50.799937 24.17 51.050656 24.03125 51.441406L23.361328 53.326172C23.177328 53.846172 23.449703 54.418516 23.970703 54.603516C24.080703 54.642516 24.193687 54.660156 24.304688 54.660156C24.715688 54.660156 25.100094 54.405094 25.246094 53.996094L25.916016 52.111328C26.100016 51.591328 25.829594 51.018984 25.308594 50.833984C25.179094 50.787734 25.045563 50.769813 24.916016 50.777344 z M 39.089844 50.792969C38.960297 50.785359 38.826766 50.803359 38.697266 50.849609C38.177266 51.034609 37.906797 51.605953 38.091797 52.126953L38.761719 54.011719C38.906719 54.420719 39.292125 54.675781 39.703125 54.675781C39.814125 54.675781 39.927109 54.656187 40.037109 54.617188C40.557109 54.432187 40.829531 53.862797 40.644531 53.341797L39.974609 51.455078C39.835859 51.065078 39.478484 50.815797 39.089844 50.792969 z M 29.730469 51.857422C29.183469 51.802422 28.687 52.189281 28.625 52.738281L28.400391 54.726562C28.338391 55.274563 28.73225 55.770031 29.28125 55.832031C29.31925 55.836031 29.356531 55.837891 29.394531 55.837891C29.895531 55.837891 30.328719 55.460219 30.386719 54.949219L30.611328 52.962891C30.673328 52.414891 30.279469 51.919422 29.730469 51.857422 z M 34.275391 51.871094C33.726391 51.932094 33.332531 52.428562 33.394531 52.976562L33.619141 54.962891C33.676141 55.473891 34.109328 55.851562 34.611328 55.851562C34.648328 55.851563 34.687609 55.84875 34.724609 55.84375C35.273609 55.78275 35.667469 55.287281 35.605469 54.738281L35.380859 52.751953C35.318859 52.202953 34.828391 51.796094 34.275391 51.871094 z" fill="#216865" />
</svg>