<?xml version="1.0" encoding="utf-8"?>
<svg xmlns="http://www.w3.org/2000/svg" viewBox="0 0 48 48" width="144" height="144">
  <path d="M34.808594 1.0039062C34.678594 1.0117813 34.549688 1.0445625 34.429688 1.1015625C34.191688 1.2175625 34.008875 1.4228281 33.921875 1.6738281L28.054688 18.673828C27.929688 19.034828 28.022969 19.437031 28.292969 19.707031C28.483969 19.897031 28.739 20 29 20C29.109 20 29.220172 19.982312 29.326172 19.945312L46.326172 14.076172C46.849172 13.895172 47.125313 13.328641 46.945312 12.806641C45.058312 7.3366406 40.664359 2.9436875 35.193359 1.0546875C35.069359 1.0121875 34.938594 0.99603125 34.808594 1.0039062 z M 24 6.0742188L24 24.878906L37.292969 38.171875C40.219969 34.759875 42 30.337 42 25.5C42 22.912 41.4825 20.444641 40.5625 18.181641L29.984375 21.832031C29.668375 21.943031 29.337 22 29 22C28.21 22 27.436906 21.680094 26.878906 21.121094C26.071906 20.314094 25.792063 19.097484 26.164062 18.021484L29.818359 7.4375C27.998359 6.6975 26.042 6.2332188 24 6.0742188 z M 21 6.0761719C11.445 6.8091719 3.8091719 14.445 3.0761719 24L21 24L21 6.0761719 z M 3.0761719 27C3.8471719 37.052 12.254 45 22.5 45C27.337 45 31.759875 43.219969 35.171875 40.292969L21.878906 27L3.0761719 27 z" fill="#216865" />
</svg>