<?xml version="1.0" encoding="utf-8"?>
<svg xmlns="http://www.w3.org/2000/svg" viewBox="0 0 100 100" width="400" height="400">
  <path fill="#d68f53" d="M69.481,86H27.797c-1.196,0-2.165-0.969-2.165-2.165V16.165c0-1.196,0.969-2.165,2.165-2.165h41.684 c1.196,0,2.165,0.969,2.165,2.165v67.669C71.647,85.031,70.677,86,69.481,86z" />
  <path fill="#d68f53" d="M65.313,80.965H31.965c-0.957,0-1.732-0.776-1.732-1.732V20.767c0-0.957,0.776-1.732,1.732-1.732 h33.347c0.957,0,1.732,0.776,1.732,1.732v58.466C67.045,80.19,66.27,80.965,65.313,80.965z" />
  <path fill="none" stroke="#000" stroke-width="2" d="M69.481,86H27.797c-1.196,0-2.165-0.969-2.165-2.165V16.165c0-1.196,0.969-2.165,2.165-2.165h41.684c1.196,0,2.165,0.969,2.165,2.165v67.669C71.647,85.031,70.677,86,69.481,86z" />
  <path fill="none" stroke="#000" d="M66.673,82.5H31.327c-1.009,0-1.827-0.818-1.827-1.827V19.327c0-1.009,0.818-1.827,1.827-1.827h35.347c1.009,0,1.827,0.818,1.827,1.827v61.347C68.5,81.682,67.682,82.5,66.673,82.5z" />
  <path fill="#78a1d1" stroke="#000" d="M41.315,83.918l14.249,6.582c1.003,0.463,2.192,0.026,2.655-0.977L70.24,63.48c1.43-1.911,2.193-4.345,1.943-6.958c-0.442-4.631-4.168-8.434-8.791-8.956C58.416,47.004,54.5,50.5,52.69,54.51l-0.01,0.02L40.338,81.265C39.875,82.267,40.313,83.455,41.315,83.918z M61.23,53c0-1.38,1.12-2.5,2.5-2.5s2.5,1.12,2.5,2.5s-1.12,2.5-2.5,2.5S61.23,54.38,61.23,53z" />
  <line x1="77.23" x2="76.5" y1="74.23" y2="73.5" fill="none" stroke="#000" stroke-linecap="round" stroke-linejoin="round" />
  <path fill="#c7dff1" stroke="#000" stroke-linecap="round" stroke-linejoin="round" d="M77.99,71.5h0.74c0.55,0,1,0.45,1,1v3c0,0.55-0.45,1-1,1H75.5l2,2l-1.27,1.27L75.5,80.5l2,2l-1.27,1.27L75.5,84.5l2,2l-1.27,1v1.41c0,0.32-0.16,0.63-0.43,0.82l-1.87,1.29c-0.4,0.28-0.95,0.22-1.29-0.13l-1.13-1.17c-0.18-0.19-0.28-0.43-0.28-0.69V76.5h-2.5c-0.55,0-1-0.45-1-1v-3c0-0.55,0.45-1,1-1h0.74c-3.11-1.57-5.24-4.78-5.24-8.5c0-5.35,4.42-9.67,9.81-9.49c5.06,0.16,9.21,4.47,9.19,9.53C83.21,66.74,81.09,69.94,77.99,71.5z" />
  <path fill="#fcba7f" d="M39,30.549v10.779c0,0.549,0.443,0.996,0.992,1l18,0.144c0.555,0.004,1.008-0.445,1.008-1v-10.77c0-0.549-0.443-0.995-0.992-1l-18-0.153C39.453,29.544,39,29.993,39,30.549z" />
  <path fill="none" stroke="#000" d="M39,30.549v10.779c0,0.549,0.443,0.996,0.992,1l18,0.144c0.555,0.004,1.008-0.445,1.008-1v-10.77c0-0.549-0.443-0.995-0.992-1l-18-0.153C39.453,29.544,39,29.993,39,30.549z" />
  <path d="M45.494,34.069L42.35,34.04l-0.01,1.023l1.131,0.011c1.24,0.011,2.34,0.529,2.319,1.892c-0.012,1.322-1.124,1.944-2.297,1.933c-1.28-0.012-2.374-0.479-2.37-1.843l1.09,0.01c-0.007,0.64,0.725,0.814,1.273,0.818c0.532,0.005,1.208-0.239,1.214-0.929c0.016-0.656-0.641-0.854-1.239-0.859l-2.203-0.02c0.009-1.048,0.019-2.021,0.029-3.076l4.217,0.039L45.494,34.069z" />
  <polygon points="49.73,37.96 49.72,38.89 46.95,38.86 46.96,37.93 47.83,37.94 47.87,34.05 46.96,34.04 46.97,33.04 48.97,33.06 48.92,37.95" />
  <path d="M51.23,34.77c0.021-1.231,1.19-1.751,2.262-1.742c1.165,0.011,2.424,0.497,2.411,1.878c-0.014,1.479-1.131,1.752-2.354,1.741c-0.482-0.005-1.264,0.113-1.271,0.745l-0.004,0.499l3.617,0.034l-0.01,1.022l-4.715-0.045c0.004-0.507,0.01-1.014,0.014-1.53c0.014-1.339,1.231-1.727,2.378-1.715c0.441,0.004,1.248-0.064,1.255-0.737c0.006-0.632-0.565-0.936-1.313-0.943c-0.574-0.006-1.168,0.28-1.18,0.804L51.23,34.77z" />
  <path fill="none" stroke="#000" d="M63.5,50.5c0,4.418,3.582,8,8,8c1.206,0,2.35-0.267,3.063-0.641l0.625-0.255" />
  <path fill="none" stroke="#000" d="M78.5,54.375c0.637-1.148,1-2.469,1-3.875c0-4.418-3.582-8-8-8c-3.405,0-6.313,2.127-7.468,5.125" />
  <circle cx="73.5" cy="58.5" r="2" fill="none" stroke="#000" stroke-width=".5" />
  <path fill="none" stroke="#000" stroke-width=".5" d="M73.5,88.5V70l0-0.235c-0.082,0.003-0.164,0.005-0.246,0.005C69.8,69.77,67,66.97,67,63.516" />
</svg>